<svg id="visual" viewBox="0 0 1360 800" width="1360" height="800" xmlns="http://www.w3.org/2000/svg" xmlns:xlink="http://www.w3.org/1999/xlink" version="1.1"><g stroke-width="1" stroke-linejoin="bevel"><path d="M570.9 356L610.9 197L398.6 159Z" fill="#21504f" stroke="#358471"></path><path d="M398.6 159L404.6 366L570.9 356Z" fill="#216161" stroke="#358471"></path><path d="M398.6 159L237.3 196L404.6 366Z" fill="#21504f" stroke="#358471"></path><path d="M610.9 197L565.9 0L398.6 159Z" fill="#216565" stroke="#358471"></path><path d="M398.6 159L415.6 0L237.3 196Z" fill="#215756" stroke="#358471"></path><path d="M565.9 0L415.6 0L398.6 159Z" fill="#21504f" stroke="#358471"></path><path d="M610.9 197L751.1 136L565.9 0Z" fill="#215453" stroke="#358471"></path><path d="M831.1 319L751.1 136L610.9 197Z" fill="#215e5d" stroke="#358471"></path><path d="M170.3 525L400.6 529L404.6 366Z" fill="#215756" stroke="#358471"></path><path d="M404.6 366L400.6 529L570.9 356Z" fill="#215e5d" stroke="#358471"></path><path d="M400.6 529L606.9 535L570.9 356Z" fill="#215453" stroke="#358471"></path><path d="M570.9 356L831.1 319L610.9 197Z" fill="#216869" stroke="#358471"></path><path d="M820.1 430L831.1 319L570.9 356Z" fill="#215e5d" stroke="#358471"></path><path d="M0 194L138.3 299L237.3 196Z" fill="#215756" stroke="#358471"></path><path d="M237.3 196L138.3 299L404.6 366Z" fill="#215453" stroke="#358471"></path><path d="M606.9 535L820.1 430L570.9 356Z" fill="#214d4c" stroke="#358471"></path><path d="M210.3 599L428.6 637L400.6 529Z" fill="#215e5d" stroke="#358471"></path><path d="M400.6 529L551.9 638L606.9 535Z" fill="#21504f" stroke="#358471"></path><path d="M606.9 535L805.1 631L820.1 430Z" fill="#215453" stroke="#358471"></path><path d="M428.6 637L551.9 638L400.6 529Z" fill="#216161" stroke="#358471"></path><path d="M934.4 0L819.1 0L751.1 136Z" fill="#216869" stroke="#358471"></path><path d="M751.1 136L819.1 0L565.9 0Z" fill="#204948" stroke="#358471"></path><path d="M415.6 0L154.3 0L237.3 196Z" fill="#204645" stroke="#358471"></path><path d="M138.3 299L170.3 525L404.6 366Z" fill="#216565" stroke="#358471"></path><path d="M170.3 525L210.3 599L400.6 529Z" fill="#214d4c" stroke="#358471"></path><path d="M551.9 638L805.1 631L606.9 535Z" fill="#214d4c" stroke="#358471"></path><path d="M1012.4 103L751.1 136L831.1 319Z" fill="#216565" stroke="#358471"></path><path d="M154.3 0L0 194L237.3 196Z" fill="#216161" stroke="#358471"></path><path d="M138.3 299L0 374L170.3 525Z" fill="#216565" stroke="#358471"></path><path d="M0 194L0 374L138.3 299Z" fill="#204948" stroke="#358471"></path><path d="M170.3 525L0 682L210.3 599Z" fill="#216161" stroke="#358471"></path><path d="M1012.4 103L934.4 0L751.1 136Z" fill="#215a5a" stroke="#358471"></path><path d="M1021.4 337L831.1 319L996.4 461Z" fill="#215453" stroke="#358471"></path><path d="M996.4 461L831.1 319L820.1 430Z" fill="#21504f" stroke="#358471"></path><path d="M1021.4 337L1012.4 103L831.1 319Z" fill="#215a5a" stroke="#358471"></path><path d="M805.1 631L996.4 461L820.1 430Z" fill="#215756" stroke="#358471"></path><path d="M154.3 0L0 0L0 194Z" fill="#216161" stroke="#358471"></path><path d="M428.6 637L425.6 800L551.9 638Z" fill="#215453" stroke="#358471"></path><path d="M551.9 638L779.1 800L805.1 631Z" fill="#215756" stroke="#358471"></path><path d="M219.3 800L425.6 800L428.6 637Z" fill="#216869" stroke="#358471"></path><path d="M425.6 800L579.9 800L551.9 638Z" fill="#21504f" stroke="#358471"></path><path d="M0 374L0 516L170.3 525Z" fill="#204948" stroke="#358471"></path><path d="M210.3 599L219.3 800L428.6 637Z" fill="#204645" stroke="#358471"></path><path d="M0 682L219.3 800L210.3 599Z" fill="#216565" stroke="#358471"></path><path d="M579.9 800L779.1 800L551.9 638Z" fill="#214d4c" stroke="#358471"></path><path d="M805.1 631L1002.4 685L996.4 461Z" fill="#216869" stroke="#358471"></path><path d="M0 516L0 682L170.3 525Z" fill="#215453" stroke="#358471"></path><path d="M1200.7 299L1133.7 130L1021.4 337Z" fill="#216869" stroke="#358471"></path><path d="M1021.4 337L1133.7 130L1012.4 103Z" fill="#204645" stroke="#358471"></path><path d="M1012.4 103L1217.7 0L934.4 0Z" fill="#214d4c" stroke="#358471"></path><path d="M779.1 800L1002.4 685L805.1 631Z" fill="#216161" stroke="#358471"></path><path d="M1202.7 521L1200.7 299L1021.4 337Z" fill="#216565" stroke="#358471"></path><path d="M1202.7 521L1021.4 337L996.4 461Z" fill="#215453" stroke="#358471"></path><path d="M0 682L0 800L219.3 800Z" fill="#204645" stroke="#358471"></path><path d="M779.1 800L1017.4 800L1002.4 685Z" fill="#216565" stroke="#358471"></path><path d="M1002.4 685L1202.7 521L996.4 461Z" fill="#214d4c" stroke="#358471"></path><path d="M1159.7 692L1202.7 521L1002.4 685Z" fill="#216869" stroke="#358471"></path><path d="M1360 187L1133.7 130L1200.7 299Z" fill="#215e5d" stroke="#358471"></path><path d="M1360 187L1217.7 0L1133.7 130Z" fill="#204948" stroke="#358471"></path><path d="M1133.7 130L1217.7 0L1012.4 103Z" fill="#215e5d" stroke="#358471"></path><path d="M1017.4 800L1159.7 692L1002.4 685Z" fill="#215e5d" stroke="#358471"></path><path d="M1360 370L1200.7 299L1202.7 521Z" fill="#204645" stroke="#358471"></path><path d="M1360 370L1360 187L1200.7 299Z" fill="#216869" stroke="#358471"></path><path d="M1360 460L1360 370L1202.7 521Z" fill="#215453" stroke="#358471"></path><path d="M1017.4 800L1180.7 800L1159.7 692Z" fill="#216869" stroke="#358471"></path><path d="M1360 639L1360 460L1202.7 521Z" fill="#216869" stroke="#358471"></path><path d="M1360 639L1202.7 521L1159.7 692Z" fill="#204645" stroke="#358471"></path><path d="M1360 187L1360 0L1217.7 0Z" fill="#216869" stroke="#358471"></path><path d="M1360 800L1360 639L1159.7 692Z" fill="#204645" stroke="#358471"></path><path d="M1180.7 800L1360 800L1159.7 692Z" fill="#215a5a" stroke="#358471"></path></g></svg>