<svg id="visual" viewBox="0 0 1360 800" width="1360" height="800" xmlns="http://www.w3.org/2000/svg" xmlns:xlink="http://www.w3.org/1999/xlink" version="1.1"><g stroke-width="1" stroke-linejoin="bevel"><path d="M599.4 361L634.4 252.7L488.3 292.7Z" fill="#204645" stroke="#358471"></path><path d="M488.3 292.7L476.3 451L599.4 361Z" fill="#216869" stroke="#358471"></path><path d="M634.4 252.7L630.4 103.3L488.3 292.7Z" fill="#215a5a" stroke="#358471"></path><path d="M476.3 451L579.4 507.3L599.4 361Z" fill="#215e5d" stroke="#358471"></path><path d="M599.4 361L787.6 296.7L634.4 252.7Z" fill="#204645" stroke="#358471"></path><path d="M630.4 103.3L400.3 146.3L488.3 292.7Z" fill="#216161" stroke="#358471"></path><path d="M488.3 292.7L308.2 395L476.3 451Z" fill="#215a5a" stroke="#358471"></path><path d="M778.6 426L787.6 296.7L599.4 361Z" fill="#204645" stroke="#358471"></path><path d="M634.4 252.7L766.6 122.3L630.4 103.3Z" fill="#204948" stroke="#358471"></path><path d="M400.3 146.3L331.2 233.7L488.3 292.7Z" fill="#216161" stroke="#358471"></path><path d="M579.4 507.3L778.6 426L599.4 361Z" fill="#215453" stroke="#358471"></path><path d="M787.6 296.7L766.6 122.3L634.4 252.7Z" fill="#215a5a" stroke="#358471"></path><path d="M331.2 233.7L308.2 395L488.3 292.7Z" fill="#215a5a" stroke="#358471"></path><path d="M476.3 451L399.3 577.3L579.4 507.3Z" fill="#214d4c" stroke="#358471"></path><path d="M782.6 0L569.4 0L630.4 103.3Z" fill="#214d4c" stroke="#358471"></path><path d="M630.4 103.3L569.4 0L400.3 146.3Z" fill="#215756" stroke="#358471"></path><path d="M308.2 395L345.2 481.3L476.3 451Z" fill="#216161" stroke="#358471"></path><path d="M400.3 146.3L304.2 148.3L331.2 233.7Z" fill="#216869" stroke="#358471"></path><path d="M331.2 233.7L181.1 216.7L308.2 395Z" fill="#216161" stroke="#358471"></path><path d="M353.2 0L304.2 148.3L400.3 146.3Z" fill="#215a5a" stroke="#358471"></path><path d="M579.4 507.3L777.6 508.3L778.6 426Z" fill="#214d4c" stroke="#358471"></path><path d="M778.6 426L877.7 294.7L787.6 296.7Z" fill="#216565" stroke="#358471"></path><path d="M914.7 435L877.7 294.7L778.6 426Z" fill="#216565" stroke="#358471"></path><path d="M787.6 296.7L868.7 136.3L766.6 122.3Z" fill="#216161" stroke="#358471"></path><path d="M569.4 0L448.3 0L400.3 146.3Z" fill="#215a5a" stroke="#358471"></path><path d="M345.2 481.3L399.3 577.3L476.3 451Z" fill="#216565" stroke="#358471"></path><path d="M579.4 507.3L656.4 701.7L777.6 508.3Z" fill="#215756" stroke="#358471"></path><path d="M877.7 294.7L868.7 136.3L787.6 296.7Z" fill="#215453" stroke="#358471"></path><path d="M766.6 122.3L782.6 0L630.4 103.3Z" fill="#21504f" stroke="#358471"></path><path d="M448.3 0L353.2 0L400.3 146.3Z" fill="#216565" stroke="#358471"></path><path d="M868.7 136.3L782.6 0L766.6 122.3Z" fill="#216161" stroke="#358471"></path><path d="M777.6 508.3L914.7 435L778.6 426Z" fill="#216869" stroke="#358471"></path><path d="M1045.8 121.3L901.7 0L868.7 136.3Z" fill="#215e5d" stroke="#358471"></path><path d="M179.1 175.3L181.1 216.7L304.2 148.3Z" fill="#21504f" stroke="#358471"></path><path d="M304.2 148.3L181.1 216.7L331.2 233.7Z" fill="#216565" stroke="#358471"></path><path d="M114.1 495.3L354.2 620.7L345.2 481.3Z" fill="#215e5d" stroke="#358471"></path><path d="M345.2 481.3L354.2 620.7L399.3 577.3Z" fill="#216161" stroke="#358471"></path><path d="M114.1 495.3L345.2 481.3L308.2 395Z" fill="#204948" stroke="#358471"></path><path d="M399.3 577.3L474.3 692.7L579.4 507.3Z" fill="#216565" stroke="#358471"></path><path d="M102.1 0L179.1 175.3L304.2 148.3Z" fill="#215a5a" stroke="#358471"></path><path d="M354.2 620.7L474.3 692.7L399.3 577.3Z" fill="#215453" stroke="#358471"></path><path d="M777.6 508.3L934.7 511.3L914.7 435Z" fill="#204645" stroke="#358471"></path><path d="M474.3 692.7L656.4 701.7L579.4 507.3Z" fill="#215e5d" stroke="#358471"></path><path d="M784.6 678.7L934.7 511.3L777.6 508.3Z" fill="#216869" stroke="#358471"></path><path d="M1045.8 121.3L868.7 136.3L877.7 294.7Z" fill="#204948" stroke="#358471"></path><path d="M1002.8 418L877.7 294.7L914.7 435Z" fill="#21504f" stroke="#358471"></path><path d="M868.7 136.3L901.7 0L782.6 0Z" fill="#216161" stroke="#358471"></path><path d="M656.4 701.7L784.6 678.7L777.6 508.3Z" fill="#215e5d" stroke="#358471"></path><path d="M934.7 511.3L1002.8 418L914.7 435Z" fill="#215756" stroke="#358471"></path><path d="M878.7 701.7L1006.8 518.3L934.7 511.3Z" fill="#215453" stroke="#358471"></path><path d="M934.7 511.3L1006.8 518.3L1002.8 418Z" fill="#204645" stroke="#358471"></path><path d="M96.1 455L308.2 395L181.1 216.7Z" fill="#204645" stroke="#358471"></path><path d="M96.1 455L114.1 495.3L308.2 395Z" fill="#204645" stroke="#358471"></path><path d="M354.2 620.7L428.3 800L474.3 692.7Z" fill="#204645" stroke="#358471"></path><path d="M0 276.7L96.1 455L181.1 216.7Z" fill="#216869" stroke="#358471"></path><path d="M1090.8 209.7L1045.8 121.3L877.7 294.7Z" fill="#215e5d" stroke="#358471"></path><path d="M1090.8 209.7L877.7 294.7L1002.8 418Z" fill="#216869" stroke="#358471"></path><path d="M474.3 692.7L638.4 800L656.4 701.7Z" fill="#216869" stroke="#358471"></path><path d="M656.4 701.7L756.6 800L784.6 678.7Z" fill="#215e5d" stroke="#358471"></path><path d="M784.6 678.7L878.7 701.7L934.7 511.3Z" fill="#215756" stroke="#358471"></path><path d="M428.3 800L638.4 800L474.3 692.7Z" fill="#215e5d" stroke="#358471"></path><path d="M756.6 800L878.7 701.7L784.6 678.7Z" fill="#214d4c" stroke="#358471"></path><path d="M287.2 800L428.3 800L354.2 620.7Z" fill="#215756" stroke="#358471"></path><path d="M1215.9 259.7L1090.8 209.7L1002.8 418Z" fill="#216869" stroke="#358471"></path><path d="M638.4 800L756.6 800L656.4 701.7Z" fill="#21504f" stroke="#358471"></path><path d="M353.2 0L102.1 0L304.2 148.3Z" fill="#216565" stroke="#358471"></path><path d="M179.1 175.3L0 276.7L181.1 216.7Z" fill="#216869" stroke="#358471"></path><path d="M0 545.3L104.1 615.7L114.1 495.3Z" fill="#215e5d" stroke="#358471"></path><path d="M114.1 495.3L104.1 615.7L354.2 620.7Z" fill="#216869" stroke="#358471"></path><path d="M0 85.3L0 276.7L179.1 175.3Z" fill="#216565" stroke="#358471"></path><path d="M96.1 455L0 545.3L114.1 495.3Z" fill="#214d4c" stroke="#358471"></path><path d="M0 276.7L0 390L96.1 455Z" fill="#215e5d" stroke="#358471"></path><path d="M104.1 615.7L287.2 800L354.2 620.7Z" fill="#214d4c" stroke="#358471"></path><path d="M102.1 0L0 85.3L179.1 175.3Z" fill="#216161" stroke="#358471"></path><path d="M878.7 701.7L1073.8 643.7L1006.8 518.3Z" fill="#21504f" stroke="#358471"></path><path d="M756.6 800L889.7 800L878.7 701.7Z" fill="#214d4c" stroke="#358471"></path><path d="M1222.9 122.3L1100.8 0L1045.8 121.3Z" fill="#215e5d" stroke="#358471"></path><path d="M1045.8 121.3L1100.8 0L901.7 0Z" fill="#215e5d" stroke="#358471"></path><path d="M1002.8 800L1073.8 643.7L878.7 701.7Z" fill="#21504f" stroke="#358471"></path><path d="M1234.9 436L1215.9 259.7L1002.8 418Z" fill="#215a5a" stroke="#358471"></path><path d="M1090.8 209.7L1222.9 122.3L1045.8 121.3Z" fill="#215a5a" stroke="#358471"></path><path d="M0 390L0 545.3L96.1 455Z" fill="#215453" stroke="#358471"></path><path d="M104.1 615.7L101.1 800L287.2 800Z" fill="#204948" stroke="#358471"></path><path d="M102.1 0L0 0L0 85.3Z" fill="#215e5d" stroke="#358471"></path><path d="M1234.9 436L1002.8 418L1006.8 518.3Z" fill="#216161" stroke="#358471"></path><path d="M889.7 800L1002.8 800L878.7 701.7Z" fill="#21504f" stroke="#358471"></path><path d="M1215.9 259.7L1222.9 122.3L1090.8 209.7Z" fill="#215453" stroke="#358471"></path><path d="M1190.9 579.3L1234.9 436L1006.8 518.3Z" fill="#215a5a" stroke="#358471"></path><path d="M1215.9 259.7L1360 177.3L1222.9 122.3Z" fill="#21504f" stroke="#358471"></path><path d="M1190.9 579.3L1006.8 518.3L1073.8 643.7Z" fill="#216869" stroke="#358471"></path><path d="M1202.9 653.7L1190.9 579.3L1073.8 643.7Z" fill="#215e5d" stroke="#358471"></path><path d="M0 716.7L101.1 800L104.1 615.7Z" fill="#21504f" stroke="#358471"></path><path d="M1222.9 122.3L1211.9 0L1100.8 0Z" fill="#21504f" stroke="#358471"></path><path d="M0 545.3L0 716.7L104.1 615.7Z" fill="#215756" stroke="#358471"></path><path d="M1214.9 800L1202.9 653.7L1073.8 643.7Z" fill="#204948" stroke="#358471"></path><path d="M1360 526.3L1360 430L1234.9 436Z" fill="#21504f" stroke="#358471"></path><path d="M0 716.7L0 800L101.1 800Z" fill="#204645" stroke="#358471"></path><path d="M1234.9 436L1360 291.7L1215.9 259.7Z" fill="#215756" stroke="#358471"></path><path d="M1222.9 122.3L1360 0L1211.9 0Z" fill="#215756" stroke="#358471"></path><path d="M1360 430L1360 291.7L1234.9 436Z" fill="#215a5a" stroke="#358471"></path><path d="M1360 291.7L1360 177.3L1215.9 259.7Z" fill="#215e5d" stroke="#358471"></path><path d="M1360 526.3L1234.9 436L1190.9 579.3Z" fill="#215e5d" stroke="#358471"></path><path d="M1002.8 800L1214.9 800L1073.8 643.7Z" fill="#204645" stroke="#358471"></path><path d="M1360 631.7L1360 526.3L1190.9 579.3Z" fill="#215a5a" stroke="#358471"></path><path d="M1360 631.7L1190.9 579.3L1202.9 653.7Z" fill="#214d4c" stroke="#358471"></path><path d="M1360 177.3L1360 0L1222.9 122.3Z" fill="#215e5d" stroke="#358471"></path><path d="M1360 800L1360 631.7L1202.9 653.7Z" fill="#21504f" stroke="#358471"></path><path d="M1214.9 800L1360 800L1202.9 653.7Z" fill="#215756" stroke="#358471"></path></g></svg>